<mxfile host="Electron" agent="Mozilla/5.0 (Windows NT 10.0; Win64; x64) AppleWebKit/537.36 (KHTML, like Gecko) draw.io/28.1.2 Chrome/138.0.7204.243 Electron/37.4.0 Safari/537.36" version="28.1.2">
  <diagram name="Page-1" id="smlxinxSFPfEZZP8vAhO">
    <mxGraphModel dx="2172" dy="2355" grid="1" gridSize="10" guides="1" tooltips="1" connect="1" arrows="1" fold="1" page="1" pageScale="1" pageWidth="1100" pageHeight="850" math="0" shadow="0">
      <root>
        <mxCell id="0" />
        <mxCell id="1" parent="0" />
        <mxCell id="EhTpXYNjnPHkwoJi1rWI-1" value="Component" style="swimlane;fontStyle=1;align=center;verticalAlign=top;childLayout=stackLayout;horizontal=1;startSize=26;horizontalStack=0;resizeParent=1;resizeParentMax=0;resizeLast=0;collapsible=1;marginBottom=0;whiteSpace=wrap;html=1;" parent="1" vertex="1">
          <mxGeometry x="1020" y="210" width="240" height="160" as="geometry" />
        </mxCell>
        <mxCell id="EhTpXYNjnPHkwoJi1rWI-2" value="- component_id : int&lt;div&gt;- output : Component&lt;br&gt;&lt;/div&gt;&lt;div&gt;- outputs: Dict[str,Component]&lt;/div&gt;" style="text;strokeColor=none;fillColor=none;align=left;verticalAlign=top;spacingLeft=4;spacingRight=4;overflow=hidden;rotatable=0;points=[[0,0.5],[1,0.5]];portConstraint=eastwest;whiteSpace=wrap;html=1;" parent="EhTpXYNjnPHkwoJi1rWI-1" vertex="1">
          <mxGeometry y="26" width="240" height="64" as="geometry" />
        </mxCell>
        <mxCell id="EhTpXYNjnPHkwoJi1rWI-3" value="" style="line;strokeWidth=1;fillColor=none;align=left;verticalAlign=middle;spacingTop=-1;spacingLeft=3;spacingRight=3;rotatable=0;labelPosition=right;points=[];portConstraint=eastwest;strokeColor=inherit;" parent="EhTpXYNjnPHkwoJi1rWI-1" vertex="1">
          <mxGeometry y="90" width="240" height="8" as="geometry" />
        </mxCell>
        <mxCell id="EhTpXYNjnPHkwoJi1rWI-4" value="+ connect(Component,str)&lt;div&gt;+ can_load() : bool&lt;/div&gt;&lt;div&gt;+ load()&lt;/div&gt;" style="text;strokeColor=none;fillColor=none;align=left;verticalAlign=top;spacingLeft=4;spacingRight=4;overflow=hidden;rotatable=0;points=[[0,0.5],[1,0.5]];portConstraint=eastwest;whiteSpace=wrap;html=1;" parent="EhTpXYNjnPHkwoJi1rWI-1" vertex="1">
          <mxGeometry y="98" width="240" height="62" as="geometry" />
        </mxCell>
        <mxCell id="EhTpXYNjnPHkwoJi1rWI-5" value="PalletConveyor" style="swimlane;fontStyle=1;align=center;verticalAlign=top;childLayout=stackLayout;horizontal=1;startSize=26;horizontalStack=0;resizeParent=1;resizeParentMax=0;resizeLast=0;collapsible=1;marginBottom=0;whiteSpace=wrap;html=1;" parent="1" vertex="1">
          <mxGeometry x="1390" y="460" width="210" height="140" as="geometry" />
        </mxCell>
        <mxCell id="EhTpXYNjnPHkwoJi1rWI-6" value="&lt;div&gt;- start : Tuple[float,float]&lt;/div&gt;&lt;div&gt;- end : Tuple[float,float]&lt;/div&gt;&lt;div&gt;- num_slots : int&lt;/div&gt;&lt;div&gt;- slots : List[SystemPallet]&lt;/div&gt;&lt;div&gt;&lt;br&gt;&lt;/div&gt;" style="text;strokeColor=none;fillColor=none;align=left;verticalAlign=top;spacingLeft=4;spacingRight=4;overflow=hidden;rotatable=0;points=[[0,0.5],[1,0.5]];portConstraint=eastwest;whiteSpace=wrap;html=1;" parent="EhTpXYNjnPHkwoJi1rWI-5" vertex="1">
          <mxGeometry y="26" width="210" height="74" as="geometry" />
        </mxCell>
        <mxCell id="EhTpXYNjnPHkwoJi1rWI-7" value="" style="line;strokeWidth=1;fillColor=none;align=left;verticalAlign=middle;spacingTop=-1;spacingLeft=3;spacingRight=3;rotatable=0;labelPosition=right;points=[];portConstraint=eastwest;strokeColor=inherit;" parent="EhTpXYNjnPHkwoJi1rWI-5" vertex="1">
          <mxGeometry y="100" width="210" height="8" as="geometry" />
        </mxCell>
        <mxCell id="EhTpXYNjnPHkwoJi1rWI-8" value="+ shift()&lt;div&gt;&lt;br&gt;&lt;/div&gt;" style="text;strokeColor=none;fillColor=none;align=left;verticalAlign=top;spacingLeft=4;spacingRight=4;overflow=hidden;rotatable=0;points=[[0,0.5],[1,0.5]];portConstraint=eastwest;whiteSpace=wrap;html=1;" parent="EhTpXYNjnPHkwoJi1rWI-5" vertex="1">
          <mxGeometry y="108" width="210" height="32" as="geometry" />
        </mxCell>
        <mxCell id="EhTpXYNjnPHkwoJi1rWI-9" value="PayloadBuffer" style="swimlane;fontStyle=1;align=center;verticalAlign=top;childLayout=stackLayout;horizontal=1;startSize=26;horizontalStack=0;resizeParent=1;resizeParentMax=0;resizeLast=0;collapsible=1;marginBottom=0;whiteSpace=wrap;html=1;" parent="1" vertex="1">
          <mxGeometry x="1160" y="2" width="260" height="94" as="geometry" />
        </mxCell>
        <mxCell id="EhTpXYNjnPHkwoJi1rWI-10" value="&lt;div&gt;- coordinate : Tuple[float,float]&lt;/div&gt;&lt;div&gt;- payload : TransportationUnit&lt;/div&gt;" style="text;strokeColor=none;fillColor=none;align=left;verticalAlign=top;spacingLeft=4;spacingRight=4;overflow=hidden;rotatable=0;points=[[0,0.5],[1,0.5]];portConstraint=eastwest;whiteSpace=wrap;html=1;" parent="EhTpXYNjnPHkwoJi1rWI-9" vertex="1">
          <mxGeometry y="26" width="260" height="34" as="geometry" />
        </mxCell>
        <mxCell id="EhTpXYNjnPHkwoJi1rWI-11" value="" style="line;strokeWidth=1;fillColor=none;align=left;verticalAlign=middle;spacingTop=-1;spacingLeft=3;spacingRight=3;rotatable=0;labelPosition=right;points=[];portConstraint=eastwest;strokeColor=inherit;" parent="EhTpXYNjnPHkwoJi1rWI-9" vertex="1">
          <mxGeometry y="60" width="260" height="8" as="geometry" />
        </mxCell>
        <mxCell id="EhTpXYNjnPHkwoJi1rWI-12" value="+ handoff()" style="text;strokeColor=none;fillColor=none;align=left;verticalAlign=top;spacingLeft=4;spacingRight=4;overflow=hidden;rotatable=0;points=[[0,0.5],[1,0.5]];portConstraint=eastwest;whiteSpace=wrap;html=1;" parent="EhTpXYNjnPHkwoJi1rWI-9" vertex="1">
          <mxGeometry y="68" width="260" height="26" as="geometry" />
        </mxCell>
        <mxCell id="EhTpXYNjnPHkwoJi1rWI-13" value="Extends" style="endArrow=block;endSize=16;endFill=0;html=1;rounded=0;edgeStyle=orthogonalEdgeStyle;" parent="1" source="EhTpXYNjnPHkwoJi1rWI-5" target="EhTpXYNjnPHkwoJi1rWI-1" edge="1">
          <mxGeometry width="160" relative="1" as="geometry">
            <mxPoint x="1050" y="424" as="sourcePoint" />
            <mxPoint x="1089" y="374" as="targetPoint" />
            <Array as="points">
              <mxPoint x="1300" y="520" />
              <mxPoint x="1300" y="290" />
            </Array>
          </mxGeometry>
        </mxCell>
        <mxCell id="EhTpXYNjnPHkwoJi1rWI-14" value="Extends" style="endArrow=block;endSize=16;endFill=0;html=1;rounded=0;edgeStyle=orthogonalEdgeStyle;" parent="1" source="EhTpXYNjnPHkwoJi1rWI-9" target="EhTpXYNjnPHkwoJi1rWI-1" edge="1">
          <mxGeometry width="160" relative="1" as="geometry">
            <mxPoint x="950" y="454" as="sourcePoint" />
            <mxPoint x="1110" y="454" as="targetPoint" />
          </mxGeometry>
        </mxCell>
        <mxCell id="EhTpXYNjnPHkwoJi1rWI-15" value="Depalletizer" style="swimlane;fontStyle=1;align=center;verticalAlign=top;childLayout=stackLayout;horizontal=1;startSize=26;horizontalStack=0;resizeParent=1;resizeParentMax=0;resizeLast=0;collapsible=1;marginBottom=0;whiteSpace=wrap;html=1;" parent="1" vertex="1">
          <mxGeometry x="1390" y="280" width="230" height="124" as="geometry" />
        </mxCell>
        <mxCell id="EhTpXYNjnPHkwoJi1rWI-16" value="- coordinate : Tuple[float,float]&lt;div&gt;- current_item_id : int&lt;/div&gt;&lt;div&gt;- remaining_qty : int&lt;/div&gt;&lt;div&gt;- payload :SystemPallet&lt;/div&gt;" style="text;strokeColor=none;fillColor=none;align=left;verticalAlign=top;spacingLeft=4;spacingRight=4;overflow=hidden;rotatable=0;points=[[0,0.5],[1,0.5]];portConstraint=eastwest;whiteSpace=wrap;html=1;" parent="EhTpXYNjnPHkwoJi1rWI-15" vertex="1">
          <mxGeometry y="26" width="230" height="64" as="geometry" />
        </mxCell>
        <mxCell id="EhTpXYNjnPHkwoJi1rWI-17" value="" style="line;strokeWidth=1;fillColor=none;align=left;verticalAlign=middle;spacingTop=-1;spacingLeft=3;spacingRight=3;rotatable=0;labelPosition=right;points=[];portConstraint=eastwest;strokeColor=inherit;" parent="EhTpXYNjnPHkwoJi1rWI-15" vertex="1">
          <mxGeometry y="90" width="230" height="8" as="geometry" />
        </mxCell>
        <mxCell id="EhTpXYNjnPHkwoJi1rWI-18" value="+ current_process_time_left() : float" style="text;strokeColor=none;fillColor=none;align=left;verticalAlign=top;spacingLeft=4;spacingRight=4;overflow=hidden;rotatable=0;points=[[0,0.5],[1,0.5]];portConstraint=eastwest;whiteSpace=wrap;html=1;" parent="EhTpXYNjnPHkwoJi1rWI-15" vertex="1">
          <mxGeometry y="98" width="230" height="26" as="geometry" />
        </mxCell>
        <mxCell id="4hlIlWibYHXEMwC6u99t-72" style="edgeStyle=orthogonalEdgeStyle;rounded=0;orthogonalLoop=1;jettySize=auto;html=1;strokeColor=default;align=center;verticalAlign=middle;fontFamily=Helvetica;fontSize=11;fontColor=default;labelBackgroundColor=default;endArrow=diamondThin;endFill=0;endSize=14;" edge="1" parent="1" source="4hlIlWibYHXEMwC6u99t-2" target="EhTpXYNjnPHkwoJi1rWI-15">
          <mxGeometry relative="1" as="geometry" />
        </mxCell>
        <mxCell id="4hlIlWibYHXEMwC6u99t-73" value="0..1" style="edgeLabel;html=1;align=center;verticalAlign=middle;resizable=0;points=[];" vertex="1" connectable="0" parent="4hlIlWibYHXEMwC6u99t-72">
          <mxGeometry x="-0.894" relative="1" as="geometry">
            <mxPoint as="offset" />
          </mxGeometry>
        </mxCell>
        <mxCell id="4hlIlWibYHXEMwC6u99t-74" value="1" style="edgeLabel;html=1;align=center;verticalAlign=middle;resizable=0;points=[];" vertex="1" connectable="0" parent="4hlIlWibYHXEMwC6u99t-72">
          <mxGeometry x="0.7226" y="1" relative="1" as="geometry">
            <mxPoint as="offset" />
          </mxGeometry>
        </mxCell>
        <mxCell id="4hlIlWibYHXEMwC6u99t-75" style="edgeStyle=orthogonalEdgeStyle;rounded=0;orthogonalLoop=1;jettySize=auto;html=1;strokeColor=default;align=center;verticalAlign=middle;fontFamily=Helvetica;fontSize=11;fontColor=default;labelBackgroundColor=default;endArrow=diamondThin;endFill=0;endSize=14;" edge="1" parent="1" source="4hlIlWibYHXEMwC6u99t-2" target="EhTpXYNjnPHkwoJi1rWI-5">
          <mxGeometry relative="1" as="geometry">
            <Array as="points">
              <mxPoint x="1620" y="200" />
              <mxPoint x="1670" y="200" />
              <mxPoint x="1670" y="530" />
            </Array>
          </mxGeometry>
        </mxCell>
        <mxCell id="4hlIlWibYHXEMwC6u99t-76" value="1" style="edgeLabel;html=1;align=center;verticalAlign=middle;resizable=0;points=[];" vertex="1" connectable="0" parent="4hlIlWibYHXEMwC6u99t-75">
          <mxGeometry x="0.8792" relative="1" as="geometry">
            <mxPoint as="offset" />
          </mxGeometry>
        </mxCell>
        <mxCell id="4hlIlWibYHXEMwC6u99t-77" value="0..*" style="edgeLabel;html=1;align=center;verticalAlign=middle;resizable=0;points=[];" vertex="1" connectable="0" parent="4hlIlWibYHXEMwC6u99t-75">
          <mxGeometry x="-0.9448" relative="1" as="geometry">
            <mxPoint as="offset" />
          </mxGeometry>
        </mxCell>
        <mxCell id="4hlIlWibYHXEMwC6u99t-2" value="SystemPallet" style="swimlane;fontStyle=1;align=center;verticalAlign=top;childLayout=stackLayout;horizontal=1;startSize=26;horizontalStack=0;resizeParent=1;resizeParentMax=0;resizeLast=0;collapsible=1;marginBottom=0;whiteSpace=wrap;html=1;" vertex="1" parent="1">
          <mxGeometry x="1469.9957142857147" y="2" width="210" height="130" as="geometry" />
        </mxCell>
        <mxCell id="4hlIlWibYHXEMwC6u99t-3" value="&lt;div&gt;- order : Order&lt;/div&gt;&lt;div&gt;- requested_dest : Destination&lt;/div&gt;&lt;div&gt;&lt;div&gt;&lt;br&gt;&lt;/div&gt;&lt;/div&gt;" style="text;strokeColor=none;fillColor=none;align=left;verticalAlign=top;spacingLeft=4;spacingRight=4;overflow=hidden;rotatable=0;points=[[0,0.5],[1,0.5]];portConstraint=eastwest;whiteSpace=wrap;html=1;" vertex="1" parent="4hlIlWibYHXEMwC6u99t-2">
          <mxGeometry y="26" width="210" height="54" as="geometry" />
        </mxCell>
        <mxCell id="4hlIlWibYHXEMwC6u99t-4" value="" style="line;strokeWidth=1;fillColor=none;align=left;verticalAlign=middle;spacingTop=-1;spacingLeft=3;spacingRight=3;rotatable=0;labelPosition=right;points=[];portConstraint=eastwest;strokeColor=inherit;" vertex="1" parent="4hlIlWibYHXEMwC6u99t-2">
          <mxGeometry y="80" width="210" height="8" as="geometry" />
        </mxCell>
        <mxCell id="4hlIlWibYHXEMwC6u99t-5" value="+ merge_order(order,str)&lt;div&gt;+ clear_order()&lt;/div&gt;" style="text;strokeColor=none;fillColor=none;align=left;verticalAlign=top;spacingLeft=4;spacingRight=4;overflow=hidden;rotatable=0;points=[[0,0.5],[1,0.5]];portConstraint=eastwest;whiteSpace=wrap;html=1;" vertex="1" parent="4hlIlWibYHXEMwC6u99t-2">
          <mxGeometry y="88" width="210" height="42" as="geometry" />
        </mxCell>
        <mxCell id="4hlIlWibYHXEMwC6u99t-61" style="edgeStyle=orthogonalEdgeStyle;rounded=0;orthogonalLoop=1;jettySize=auto;html=1;endArrow=diamondThin;endFill=0;endSize=14;" edge="1" parent="1" source="4hlIlWibYHXEMwC6u99t-6" target="EhTpXYNjnPHkwoJi1rWI-9">
          <mxGeometry relative="1" as="geometry" />
        </mxCell>
        <mxCell id="4hlIlWibYHXEMwC6u99t-65" value="0..1" style="edgeLabel;html=1;align=center;verticalAlign=middle;resizable=0;points=[];" vertex="1" connectable="0" parent="4hlIlWibYHXEMwC6u99t-61">
          <mxGeometry x="-0.8896" relative="1" as="geometry">
            <mxPoint as="offset" />
          </mxGeometry>
        </mxCell>
        <mxCell id="4hlIlWibYHXEMwC6u99t-66" value="1" style="edgeLabel;html=1;align=center;verticalAlign=middle;resizable=0;points=[];" vertex="1" connectable="0" parent="4hlIlWibYHXEMwC6u99t-61">
          <mxGeometry x="0.7845" relative="1" as="geometry">
            <mxPoint as="offset" />
          </mxGeometry>
        </mxCell>
        <mxCell id="4hlIlWibYHXEMwC6u99t-62" style="edgeStyle=orthogonalEdgeStyle;rounded=0;orthogonalLoop=1;jettySize=auto;html=1;strokeColor=default;align=center;verticalAlign=middle;fontFamily=Helvetica;fontSize=11;fontColor=default;labelBackgroundColor=default;endArrow=diamondThin;endFill=0;endSize=14;" edge="1" parent="1" source="4hlIlWibYHXEMwC6u99t-6" target="4hlIlWibYHXEMwC6u99t-32">
          <mxGeometry relative="1" as="geometry" />
        </mxCell>
        <mxCell id="4hlIlWibYHXEMwC6u99t-63" value="1" style="edgeLabel;html=1;align=center;verticalAlign=middle;resizable=0;points=[];" vertex="1" connectable="0" parent="4hlIlWibYHXEMwC6u99t-62">
          <mxGeometry x="0.7472" relative="1" as="geometry">
            <mxPoint as="offset" />
          </mxGeometry>
        </mxCell>
        <mxCell id="4hlIlWibYHXEMwC6u99t-64" value="0..1" style="edgeLabel;html=1;align=center;verticalAlign=middle;resizable=0;points=[];" vertex="1" connectable="0" parent="4hlIlWibYHXEMwC6u99t-62">
          <mxGeometry x="-0.8348" relative="1" as="geometry">
            <mxPoint as="offset" />
          </mxGeometry>
        </mxCell>
        <mxCell id="4hlIlWibYHXEMwC6u99t-6" value="TransportationUnit" style="swimlane;fontStyle=1;align=center;verticalAlign=top;childLayout=stackLayout;horizontal=1;startSize=26;horizontalStack=0;resizeParent=1;resizeParentMax=0;resizeLast=0;collapsible=1;marginBottom=0;whiteSpace=wrap;html=1;" vertex="1" parent="1">
          <mxGeometry x="1039.9957142857147" y="-220" width="220" height="114" as="geometry" />
        </mxCell>
        <mxCell id="4hlIlWibYHXEMwC6u99t-7" value="- unit_id : int&lt;div&gt;- actual_location : Location&lt;/div&gt;" style="text;strokeColor=none;fillColor=none;align=left;verticalAlign=top;spacingLeft=4;spacingRight=4;overflow=hidden;rotatable=0;points=[[0,0.5],[1,0.5]];portConstraint=eastwest;whiteSpace=wrap;html=1;" vertex="1" parent="4hlIlWibYHXEMwC6u99t-6">
          <mxGeometry y="26" width="220" height="54" as="geometry" />
        </mxCell>
        <mxCell id="4hlIlWibYHXEMwC6u99t-8" value="" style="line;strokeWidth=1;fillColor=none;align=left;verticalAlign=middle;spacingTop=-1;spacingLeft=3;spacingRight=3;rotatable=0;labelPosition=right;points=[];portConstraint=eastwest;strokeColor=inherit;" vertex="1" parent="4hlIlWibYHXEMwC6u99t-6">
          <mxGeometry y="80" width="220" height="8" as="geometry" />
        </mxCell>
        <mxCell id="4hlIlWibYHXEMwC6u99t-9" value="+ method(type): type" style="text;strokeColor=none;fillColor=none;align=left;verticalAlign=top;spacingLeft=4;spacingRight=4;overflow=hidden;rotatable=0;points=[[0,0.5],[1,0.5]];portConstraint=eastwest;whiteSpace=wrap;html=1;" vertex="1" parent="4hlIlWibYHXEMwC6u99t-6">
          <mxGeometry y="88" width="220" height="26" as="geometry" />
        </mxCell>
        <mxCell id="4hlIlWibYHXEMwC6u99t-10" value="Location" style="swimlane;fontStyle=1;align=center;verticalAlign=top;childLayout=stackLayout;horizontal=1;startSize=26;horizontalStack=0;resizeParent=1;resizeParentMax=0;resizeLast=0;collapsible=1;marginBottom=0;whiteSpace=wrap;html=1;" vertex="1" parent="1">
          <mxGeometry x="1299.9957142857147" y="-380" width="200" height="114" as="geometry" />
        </mxCell>
        <mxCell id="4hlIlWibYHXEMwC6u99t-11" value="- element_name : str&lt;div&gt;- coordinates : Tuple[float,float]&lt;/div&gt;" style="text;strokeColor=none;fillColor=none;align=left;verticalAlign=top;spacingLeft=4;spacingRight=4;overflow=hidden;rotatable=0;points=[[0,0.5],[1,0.5]];portConstraint=eastwest;whiteSpace=wrap;html=1;" vertex="1" parent="4hlIlWibYHXEMwC6u99t-10">
          <mxGeometry y="26" width="200" height="54" as="geometry" />
        </mxCell>
        <mxCell id="4hlIlWibYHXEMwC6u99t-12" value="" style="line;strokeWidth=1;fillColor=none;align=left;verticalAlign=middle;spacingTop=-1;spacingLeft=3;spacingRight=3;rotatable=0;labelPosition=right;points=[];portConstraint=eastwest;strokeColor=inherit;" vertex="1" parent="4hlIlWibYHXEMwC6u99t-10">
          <mxGeometry y="80" width="200" height="8" as="geometry" />
        </mxCell>
        <mxCell id="4hlIlWibYHXEMwC6u99t-13" value="+ update(Tuple[float,float],str)" style="text;strokeColor=none;fillColor=none;align=left;verticalAlign=top;spacingLeft=4;spacingRight=4;overflow=hidden;rotatable=0;points=[[0,0.5],[1,0.5]];portConstraint=eastwest;whiteSpace=wrap;html=1;" vertex="1" parent="4hlIlWibYHXEMwC6u99t-10">
          <mxGeometry y="88" width="200" height="26" as="geometry" />
        </mxCell>
        <mxCell id="4hlIlWibYHXEMwC6u99t-14" style="edgeStyle=orthogonalEdgeStyle;rounded=0;orthogonalLoop=1;jettySize=auto;html=1;endArrow=diamondThin;endFill=1;endSize=14;" edge="1" parent="1" source="4hlIlWibYHXEMwC6u99t-11" target="4hlIlWibYHXEMwC6u99t-6">
          <mxGeometry relative="1" as="geometry" />
        </mxCell>
        <mxCell id="4hlIlWibYHXEMwC6u99t-15" value="1" style="edgeLabel;html=1;align=center;verticalAlign=middle;resizable=0;points=[];" vertex="1" connectable="0" parent="4hlIlWibYHXEMwC6u99t-14">
          <mxGeometry x="0.7347" relative="1" as="geometry">
            <mxPoint as="offset" />
          </mxGeometry>
        </mxCell>
        <mxCell id="4hlIlWibYHXEMwC6u99t-16" value="1" style="edgeLabel;html=1;align=center;verticalAlign=middle;resizable=0;points=[];" vertex="1" connectable="0" parent="4hlIlWibYHXEMwC6u99t-14">
          <mxGeometry x="-0.8493" y="-2" relative="1" as="geometry">
            <mxPoint as="offset" />
          </mxGeometry>
        </mxCell>
        <mxCell id="4hlIlWibYHXEMwC6u99t-69" style="edgeStyle=orthogonalEdgeStyle;rounded=0;orthogonalLoop=1;jettySize=auto;html=1;endArrow=diamondThin;endFill=1;endSize=14;" edge="1" parent="1" source="4hlIlWibYHXEMwC6u99t-17" target="4hlIlWibYHXEMwC6u99t-3">
          <mxGeometry relative="1" as="geometry" />
        </mxCell>
        <mxCell id="4hlIlWibYHXEMwC6u99t-70" value="0..1" style="edgeLabel;html=1;align=center;verticalAlign=middle;resizable=0;points=[];" vertex="1" connectable="0" parent="4hlIlWibYHXEMwC6u99t-69">
          <mxGeometry x="-0.7882" y="1" relative="1" as="geometry">
            <mxPoint as="offset" />
          </mxGeometry>
        </mxCell>
        <mxCell id="4hlIlWibYHXEMwC6u99t-71" value="1" style="edgeLabel;html=1;align=center;verticalAlign=middle;resizable=0;points=[];" vertex="1" connectable="0" parent="4hlIlWibYHXEMwC6u99t-69">
          <mxGeometry x="0.5727" relative="1" as="geometry">
            <mxPoint as="offset" />
          </mxGeometry>
        </mxCell>
        <mxCell id="4hlIlWibYHXEMwC6u99t-17" value="Destination" style="swimlane;fontStyle=1;align=center;verticalAlign=top;childLayout=stackLayout;horizontal=1;startSize=26;horizontalStack=0;resizeParent=1;resizeParentMax=0;resizeLast=0;collapsible=1;marginBottom=0;whiteSpace=wrap;html=1;" vertex="1" parent="1">
          <mxGeometry x="1809.9957142857147" y="10" width="200" height="104" as="geometry" />
        </mxCell>
        <mxCell id="4hlIlWibYHXEMwC6u99t-18" value="- type : str&lt;div&gt;- id : int&lt;/div&gt;" style="text;strokeColor=none;fillColor=none;align=left;verticalAlign=top;spacingLeft=4;spacingRight=4;overflow=hidden;rotatable=0;points=[[0,0.5],[1,0.5]];portConstraint=eastwest;whiteSpace=wrap;html=1;" vertex="1" parent="4hlIlWibYHXEMwC6u99t-17">
          <mxGeometry y="26" width="200" height="44" as="geometry" />
        </mxCell>
        <mxCell id="4hlIlWibYHXEMwC6u99t-19" value="" style="line;strokeWidth=1;fillColor=none;align=left;verticalAlign=middle;spacingTop=-1;spacingLeft=3;spacingRight=3;rotatable=0;labelPosition=right;points=[];portConstraint=eastwest;strokeColor=inherit;" vertex="1" parent="4hlIlWibYHXEMwC6u99t-17">
          <mxGeometry y="70" width="200" height="8" as="geometry" />
        </mxCell>
        <mxCell id="4hlIlWibYHXEMwC6u99t-20" value="+ specify(int)" style="text;strokeColor=none;fillColor=none;align=left;verticalAlign=top;spacingLeft=4;spacingRight=4;overflow=hidden;rotatable=0;points=[[0,0.5],[1,0.5]];portConstraint=eastwest;whiteSpace=wrap;html=1;" vertex="1" parent="4hlIlWibYHXEMwC6u99t-17">
          <mxGeometry y="78" width="200" height="26" as="geometry" />
        </mxCell>
        <mxCell id="4hlIlWibYHXEMwC6u99t-24" value="ItemBatch" style="swimlane;fontStyle=1;align=center;verticalAlign=top;childLayout=stackLayout;horizontal=1;startSize=26;horizontalStack=0;resizeParent=1;resizeParentMax=0;resizeLast=0;collapsible=1;marginBottom=0;whiteSpace=wrap;html=1;" vertex="1" parent="1">
          <mxGeometry x="1479.9957142857147" y="-220" width="160" height="120" as="geometry" />
        </mxCell>
        <mxCell id="4hlIlWibYHXEMwC6u99t-25" value="- items : Dict[int,int]&lt;div&gt;- item_count : int&lt;/div&gt;" style="text;strokeColor=none;fillColor=none;align=left;verticalAlign=top;spacingLeft=4;spacingRight=4;overflow=hidden;rotatable=0;points=[[0,0.5],[1,0.5]];portConstraint=eastwest;whiteSpace=wrap;html=1;" vertex="1" parent="4hlIlWibYHXEMwC6u99t-24">
          <mxGeometry y="26" width="160" height="44" as="geometry" />
        </mxCell>
        <mxCell id="4hlIlWibYHXEMwC6u99t-26" value="" style="line;strokeWidth=1;fillColor=none;align=left;verticalAlign=middle;spacingTop=-1;spacingLeft=3;spacingRight=3;rotatable=0;labelPosition=right;points=[];portConstraint=eastwest;strokeColor=inherit;" vertex="1" parent="4hlIlWibYHXEMwC6u99t-24">
          <mxGeometry y="70" width="160" height="8" as="geometry" />
        </mxCell>
        <mxCell id="4hlIlWibYHXEMwC6u99t-27" value="+ add_item(int)&lt;div&gt;+ handoff()&lt;/div&gt;" style="text;strokeColor=none;fillColor=none;align=left;verticalAlign=top;spacingLeft=4;spacingRight=4;overflow=hidden;rotatable=0;points=[[0,0.5],[1,0.5]];portConstraint=eastwest;whiteSpace=wrap;html=1;" vertex="1" parent="4hlIlWibYHXEMwC6u99t-24">
          <mxGeometry y="78" width="160" height="42" as="geometry" />
        </mxCell>
        <mxCell id="4hlIlWibYHXEMwC6u99t-31" value="Extends" style="endArrow=block;endSize=16;endFill=0;html=1;rounded=0;edgeStyle=orthogonalEdgeStyle;" edge="1" parent="1" source="EhTpXYNjnPHkwoJi1rWI-15" target="EhTpXYNjnPHkwoJi1rWI-1">
          <mxGeometry width="160" relative="1" as="geometry">
            <mxPoint x="1310" y="690" as="sourcePoint" />
            <mxPoint x="1470" y="690" as="targetPoint" />
          </mxGeometry>
        </mxCell>
        <mxCell id="4hlIlWibYHXEMwC6u99t-32" value="Junction" style="swimlane;fontStyle=1;align=center;verticalAlign=top;childLayout=stackLayout;horizontal=1;startSize=26;horizontalStack=0;resizeParent=1;resizeParentMax=0;resizeLast=0;collapsible=1;marginBottom=0;whiteSpace=wrap;html=1;" vertex="1" parent="1">
          <mxGeometry x="870" y="2" width="160" height="86" as="geometry" />
        </mxCell>
        <mxCell id="4hlIlWibYHXEMwC6u99t-33" value="+ field: type" style="text;strokeColor=none;fillColor=none;align=left;verticalAlign=top;spacingLeft=4;spacingRight=4;overflow=hidden;rotatable=0;points=[[0,0.5],[1,0.5]];portConstraint=eastwest;whiteSpace=wrap;html=1;" vertex="1" parent="4hlIlWibYHXEMwC6u99t-32">
          <mxGeometry y="26" width="160" height="26" as="geometry" />
        </mxCell>
        <mxCell id="4hlIlWibYHXEMwC6u99t-34" value="" style="line;strokeWidth=1;fillColor=none;align=left;verticalAlign=middle;spacingTop=-1;spacingLeft=3;spacingRight=3;rotatable=0;labelPosition=right;points=[];portConstraint=eastwest;strokeColor=inherit;" vertex="1" parent="4hlIlWibYHXEMwC6u99t-32">
          <mxGeometry y="52" width="160" height="8" as="geometry" />
        </mxCell>
        <mxCell id="4hlIlWibYHXEMwC6u99t-35" value="+ method(type): type" style="text;strokeColor=none;fillColor=none;align=left;verticalAlign=top;spacingLeft=4;spacingRight=4;overflow=hidden;rotatable=0;points=[[0,0.5],[1,0.5]];portConstraint=eastwest;whiteSpace=wrap;html=1;" vertex="1" parent="4hlIlWibYHXEMwC6u99t-32">
          <mxGeometry y="60" width="160" height="26" as="geometry" />
        </mxCell>
        <mxCell id="4hlIlWibYHXEMwC6u99t-36" value="FactoryGraph" style="swimlane;fontStyle=1;align=center;verticalAlign=top;childLayout=stackLayout;horizontal=1;startSize=26;horizontalStack=0;resizeParent=1;resizeParentMax=0;resizeLast=0;collapsible=1;marginBottom=0;whiteSpace=wrap;html=1;" vertex="1" parent="1">
          <mxGeometry x="620" y="-170" width="160" height="86" as="geometry" />
        </mxCell>
        <mxCell id="4hlIlWibYHXEMwC6u99t-37" value="+ field: type" style="text;strokeColor=none;fillColor=none;align=left;verticalAlign=top;spacingLeft=4;spacingRight=4;overflow=hidden;rotatable=0;points=[[0,0.5],[1,0.5]];portConstraint=eastwest;whiteSpace=wrap;html=1;" vertex="1" parent="4hlIlWibYHXEMwC6u99t-36">
          <mxGeometry y="26" width="160" height="26" as="geometry" />
        </mxCell>
        <mxCell id="4hlIlWibYHXEMwC6u99t-38" value="" style="line;strokeWidth=1;fillColor=none;align=left;verticalAlign=middle;spacingTop=-1;spacingLeft=3;spacingRight=3;rotatable=0;labelPosition=right;points=[];portConstraint=eastwest;strokeColor=inherit;" vertex="1" parent="4hlIlWibYHXEMwC6u99t-36">
          <mxGeometry y="52" width="160" height="8" as="geometry" />
        </mxCell>
        <mxCell id="4hlIlWibYHXEMwC6u99t-39" value="+ method(type): type" style="text;strokeColor=none;fillColor=none;align=left;verticalAlign=top;spacingLeft=4;spacingRight=4;overflow=hidden;rotatable=0;points=[[0,0.5],[1,0.5]];portConstraint=eastwest;whiteSpace=wrap;html=1;" vertex="1" parent="4hlIlWibYHXEMwC6u99t-36">
          <mxGeometry y="60" width="160" height="26" as="geometry" />
        </mxCell>
        <mxCell id="4hlIlWibYHXEMwC6u99t-51" style="edgeStyle=orthogonalEdgeStyle;rounded=0;orthogonalLoop=1;jettySize=auto;html=1;endArrow=diamondThin;endFill=0;endSize=14;" edge="1" parent="1" source="4hlIlWibYHXEMwC6u99t-44" target="4hlIlWibYHXEMwC6u99t-32">
          <mxGeometry relative="1" as="geometry" />
        </mxCell>
        <mxCell id="4hlIlWibYHXEMwC6u99t-53" value="1" style="edgeLabel;html=1;align=center;verticalAlign=middle;resizable=0;points=[];" vertex="1" connectable="0" parent="4hlIlWibYHXEMwC6u99t-51">
          <mxGeometry x="0.3696" relative="1" as="geometry">
            <mxPoint as="offset" />
          </mxGeometry>
        </mxCell>
        <mxCell id="4hlIlWibYHXEMwC6u99t-54" value="1" style="edgeLabel;html=1;align=center;verticalAlign=middle;resizable=0;points=[];" vertex="1" connectable="0" parent="4hlIlWibYHXEMwC6u99t-51">
          <mxGeometry x="-0.6739" relative="1" as="geometry">
            <mxPoint as="offset" />
          </mxGeometry>
        </mxCell>
        <mxCell id="4hlIlWibYHXEMwC6u99t-58" style="edgeStyle=orthogonalEdgeStyle;rounded=0;orthogonalLoop=1;jettySize=auto;html=1;endArrow=diamondThin;endFill=1;endSize=14;" edge="1" parent="1" source="4hlIlWibYHXEMwC6u99t-44" target="4hlIlWibYHXEMwC6u99t-36">
          <mxGeometry relative="1" as="geometry" />
        </mxCell>
        <mxCell id="4hlIlWibYHXEMwC6u99t-59" value="1" style="edgeLabel;html=1;align=center;verticalAlign=middle;resizable=0;points=[];" vertex="1" connectable="0" parent="4hlIlWibYHXEMwC6u99t-58">
          <mxGeometry x="0.4238" relative="1" as="geometry">
            <mxPoint as="offset" />
          </mxGeometry>
        </mxCell>
        <mxCell id="4hlIlWibYHXEMwC6u99t-60" value="1" style="edgeLabel;html=1;align=center;verticalAlign=middle;resizable=0;points=[];" vertex="1" connectable="0" parent="4hlIlWibYHXEMwC6u99t-58">
          <mxGeometry x="-0.6905" relative="1" as="geometry">
            <mxPoint as="offset" />
          </mxGeometry>
        </mxCell>
        <mxCell id="4hlIlWibYHXEMwC6u99t-44" value="Router" style="swimlane;fontStyle=1;align=center;verticalAlign=top;childLayout=stackLayout;horizontal=1;startSize=26;horizontalStack=0;resizeParent=1;resizeParentMax=0;resizeLast=0;collapsible=1;marginBottom=0;whiteSpace=wrap;html=1;" vertex="1" parent="1">
          <mxGeometry x="620" width="160" height="86" as="geometry" />
        </mxCell>
        <mxCell id="4hlIlWibYHXEMwC6u99t-45" value="+ field: type" style="text;strokeColor=none;fillColor=none;align=left;verticalAlign=top;spacingLeft=4;spacingRight=4;overflow=hidden;rotatable=0;points=[[0,0.5],[1,0.5]];portConstraint=eastwest;whiteSpace=wrap;html=1;" vertex="1" parent="4hlIlWibYHXEMwC6u99t-44">
          <mxGeometry y="26" width="160" height="26" as="geometry" />
        </mxCell>
        <mxCell id="4hlIlWibYHXEMwC6u99t-46" value="" style="line;strokeWidth=1;fillColor=none;align=left;verticalAlign=middle;spacingTop=-1;spacingLeft=3;spacingRight=3;rotatable=0;labelPosition=right;points=[];portConstraint=eastwest;strokeColor=inherit;" vertex="1" parent="4hlIlWibYHXEMwC6u99t-44">
          <mxGeometry y="52" width="160" height="8" as="geometry" />
        </mxCell>
        <mxCell id="4hlIlWibYHXEMwC6u99t-47" value="+ method(type): type" style="text;strokeColor=none;fillColor=none;align=left;verticalAlign=top;spacingLeft=4;spacingRight=4;overflow=hidden;rotatable=0;points=[[0,0.5],[1,0.5]];portConstraint=eastwest;whiteSpace=wrap;html=1;" vertex="1" parent="4hlIlWibYHXEMwC6u99t-44">
          <mxGeometry y="60" width="160" height="26" as="geometry" />
        </mxCell>
        <mxCell id="4hlIlWibYHXEMwC6u99t-49" value="Extends" style="endArrow=block;endSize=16;endFill=0;html=1;rounded=0;edgeStyle=orthogonalEdgeStyle;" edge="1" parent="1" source="4hlIlWibYHXEMwC6u99t-32" target="EhTpXYNjnPHkwoJi1rWI-1">
          <mxGeometry width="160" relative="1" as="geometry">
            <mxPoint x="830" y="190" as="sourcePoint" />
            <mxPoint x="990" y="190" as="targetPoint" />
          </mxGeometry>
        </mxCell>
        <mxCell id="4hlIlWibYHXEMwC6u99t-67" value="Extends" style="endArrow=block;endSize=16;endFill=0;html=1;rounded=0;edgeStyle=orthogonalEdgeStyle;" edge="1" parent="1" source="4hlIlWibYHXEMwC6u99t-24" target="4hlIlWibYHXEMwC6u99t-6">
          <mxGeometry width="160" relative="1" as="geometry">
            <mxPoint x="1350" y="190" as="sourcePoint" />
            <mxPoint x="1510" y="190" as="targetPoint" />
          </mxGeometry>
        </mxCell>
        <mxCell id="4hlIlWibYHXEMwC6u99t-68" value="Extends" style="endArrow=block;endSize=16;endFill=0;html=1;rounded=0;edgeStyle=orthogonalEdgeStyle;" edge="1" parent="1" source="4hlIlWibYHXEMwC6u99t-2" target="4hlIlWibYHXEMwC6u99t-6">
          <mxGeometry width="160" relative="1" as="geometry">
            <mxPoint x="1370" y="210" as="sourcePoint" />
            <mxPoint x="1530" y="210" as="targetPoint" />
            <Array as="points">
              <mxPoint x="1575" y="-80" />
              <mxPoint x="1320" y="-80" />
              <mxPoint x="1320" y="-163" />
            </Array>
          </mxGeometry>
        </mxCell>
      </root>
    </mxGraphModel>
  </diagram>
</mxfile>
